<?xml version="1.0" standalone="no"?>
<!DOCTYPE svg PUBLIC "-//W3C//DTD SVG 20010904//EN"
 "http://www.w3.org/TR/2001/REC-SVG-20010904/DTD/svg10.dtd">
<svg version="1.0" xmlns="http://www.w3.org/2000/svg"
 width="1024.000000pt" height="1024.000000pt" viewBox="0 0 1024.000000 1024.000000"
 preserveAspectRatio="xMidYMid meet">
<metadata>
Created by potrace 1.15, written by Peter Selinger 2001-2017
</metadata>
<g transform="translate(0.000000,1024.000000) scale(0.100000,-0.100000)"
fill="#000000" stroke="none">
<path d="M0 5120 l0 -5120 5120 0 5120 0 0 5120 0 5120 -5120 0 -5120 0 0
-5120z m5560 3905 c575 -70 1082 -242 1573 -534 536 -320 1010 -792 1339
-1334 511 -843 685 -1847 488 -2817 -123 -607 -391 -1175 -788 -1674 -122
-154 -441 -474 -598 -598 -597 -477 -1256 -750 -2034 -844 -179 -22 -636 -25
-810 -5 -515 58 -949 185 -1385 405 -397 202 -723 442 -1045 773 -1024 1050
-1372 2579 -905 3981 321 965 1039 1792 1956 2252 476 239 949 369 1514 414
114 9 566 -3 695 -19z"/>
<path d="M5005 7735 c-38 -7 -83 -18 -100 -23 -55 -17 -190 -75 -225 -97 -19
-12 -73 -43 -120 -70 -47 -26 -112 -64 -145 -84 -79 -50 -307 -185 -320 -190
-5 -2 -39 -23 -75 -46 -36 -23 -105 -65 -155 -94 -49 -29 -137 -81 -195 -116
-58 -35 -141 -84 -185 -110 -44 -26 -114 -68 -155 -94 -41 -26 -138 -85 -215
-131 -166 -99 -260 -179 -327 -279 -89 -131 -113 -206 -133 -421 -37 -374 -3
-639 99 -790 48 -72 129 -156 186 -193 88 -58 201 -128 265 -165 39 -21 131
-77 205 -122 74 -46 155 -94 180 -108 25 -14 74 -44 110 -67 36 -23 90 -55
120 -71 30 -15 69 -38 85 -50 17 -11 68 -42 115 -69 47 -26 108 -62 135 -80
28 -18 95 -59 149 -91 193 -115 222 -132 356 -214 331 -203 358 -215 458 -208
75 6 134 33 372 177 69 41 165 99 213 128 48 29 90 53 93 53 2 0 35 20 72 43
37 24 104 66 150 93 46 27 99 62 119 78 63 52 79 125 44 201 -20 46 -51 73
-143 128 -35 20 -146 87 -248 148 -446 269 -453 272 -550 272 -69 0 -82 -4
-169 -48 -89 -44 -99 -47 -160 -43 -59 3 -77 10 -169 63 -57 33 -136 81 -175
106 -40 25 -101 61 -137 81 -180 99 -517 310 -559 351 -59 57 -82 102 -88 177
-10 107 31 184 143 266 78 58 207 138 354 220 47 26 110 65 141 86 31 21 59
38 62 38 4 0 48 25 99 56 51 31 118 71 148 89 30 18 84 50 120 72 87 53 141
73 215 80 101 9 199 -22 320 -101 60 -40 240 -148 310 -186 55 -30 246 -144
310 -185 52 -33 241 -147 325 -195 36 -21 126 -75 200 -120 74 -46 177 -107
228 -136 50 -29 111 -66 135 -82 23 -16 76 -48 117 -71 112 -63 221 -131 278
-174 67 -50 188 -180 213 -229 19 -38 33 -47 44 -29 3 5 5 208 5 451 0 421 -1
446 -21 524 -44 165 -132 309 -254 415 -34 30 -125 91 -201 137 -76 46 -166
101 -199 121 -32 21 -68 43 -80 49 -47 24 -124 70 -177 106 -31 21 -59 38 -63
38 -3 0 -51 29 -108 64 -56 35 -128 79 -159 97 -31 19 -99 59 -150 90 -51 31
-152 92 -223 135 -72 44 -144 88 -160 99 -17 12 -43 27 -60 35 -16 8 -61 35
-100 59 -209 132 -424 189 -590 156z"/>
<path d="M4995 6471 c-50 -18 -70 -30 -283 -158 -243 -147 -320 -193 -387
-236 -38 -24 -114 -69 -168 -101 -121 -71 -152 -111 -152 -196 0 -65 32 -124
80 -150 16 -8 155 -91 309 -184 382 -229 405 -242 464 -261 80 -26 168 -17
270 28 139 62 227 52 367 -43 22 -14 72 -44 110 -65 39 -21 99 -57 135 -80 36
-23 121 -75 190 -115 69 -40 145 -86 170 -101 25 -15 85 -51 133 -81 135 -80
177 -147 177 -279 0 -83 -25 -145 -81 -198 -32 -32 -245 -165 -478 -301 -141
-82 -275 -162 -326 -195 -71 -45 -243 -146 -290 -170 -32 -16 -60 -20 -135
-20 -99 0 -134 10 -205 59 -34 24 -213 133 -296 181 -51 29 -182 108 -314 188
-27 17 -90 54 -140 82 -49 29 -132 78 -183 109 -51 31 -95 56 -98 56 -3 0 -32
18 -64 40 -32 22 -61 40 -64 40 -3 0 -56 31 -118 68 -186 113 -331 199 -368
220 -120 68 -286 174 -350 223 -81 63 -167 167 -199 242 -11 26 -24 47 -29 47
-5 0 -14 -23 -20 -51 -15 -65 -16 -659 -1 -819 20 -223 90 -381 226 -515 84
-84 182 -151 438 -300 28 -16 73 -43 100 -60 28 -17 118 -71 200 -120 83 -49
184 -110 225 -135 41 -26 102 -61 135 -79 33 -18 69 -40 80 -50 11 -9 45 -30
75 -46 30 -15 84 -47 120 -70 36 -23 90 -55 120 -72 30 -16 96 -56 147 -87 51
-31 95 -56 99 -56 4 0 21 -11 38 -24 175 -133 473 -173 706 -93 62 21 271 135
400 219 30 20 74 46 97 59 59 34 173 102 280 168 50 31 125 75 165 98 40 24
125 74 188 112 63 39 144 87 180 108 36 20 94 56 130 78 36 23 90 55 120 72
250 138 396 251 482 370 68 93 88 138 120 253 22 81 23 101 23 400 -1 344 -6
385 -65 515 -69 153 -176 236 -710 547 -85 50 -193 114 -240 143 -47 28 -157
95 -245 147 -298 178 -730 438 -776 468 -119 75 -276 161 -322 175 -67 20
-131 18 -192 -4z"/>
</g>
</svg>
